PathFileType	4	(X/Y/Z)	../Python\running\Running08\task.trc
DataRate	CameraRate	NumFrames	NumMarkers	Units	OrigDataRate	OrigDataStartFrame	OrigNumFrames
200.000000	200.000000	6	30	mm	200.000000	25	204
Frame#	Time	C7			RBAK			CLAV			STRN			RASI			RPSI			LASI			PE01			RTH2			RTH3			RTB2			RD5M			RTOE			LTH3			LTB2			LTB3			LHEE			LTOE			LD5M			RTH1			RHEE			LPSI			PE02			RTB3			RTB1			PE03			T10			LTH2			LTH1			LTB1			
		X1	Y1	Z1	X2	Y2	Z2	X3	Y3	Z3	X4	Y4	Z4	X5	Y5	Z5	X6	Y6	Z6	X7	Y7	Z7	X8	Y8	Z8	X9	Y9	Z9	X10	Y10	Z10	X11	Y11	Z11	X12	Y12	Z12	X13	Y13	Z13	X14	Y14	Z14	X15	Y15	Z15	X16	Y16	Z16	X17	Y17	Z17	X18	Y18	Z18	X19	Y19	Z19	X20	Y20	Z20	X21	Y21	Z21	X22	Y22	Z22	X23	Y23	Z23	X24	Y24	Z24	X25	Y25	Z25	X26	Y26	Z26	X27	Y27	Z27	X28	Y28	Z28	X29	Y29	Z29	X30	Y30	Z30	

26	0.125	-1254.094848632813	1369.60205078125	149.2901916503907	-1258.256591796875	1294.5419921875	282.4365234375001	-1149.968994140625	1272.488647460938	114.629005432129	-1111.159057617188	1089.802368164063	126.695053100586	-1180.469848632813	870.7756347656255	302.086883544922	-1348.022094726563	968.9959106445317	236.2373046875001	-1162.63232421875	890.9353637695317	85.50593566894534	-1331.916748046875	996.384887695313	194.7448883056642	-1376.382202148438	536.2211914062502	289.0764160156251	-1330.816528320313	575.7697753906252	300.6678466796876	-1582.673095703126	373.4497375488282	250.3450469970704	-1762.877197265626	148.9016571044922	219.4546203613282	-1733.531982421876	116.9212265014649	177.0272827148438	-1103.114868164063	628.5411376953127	32.49748611450197	-1037.953369140625	242.8887329101564	68.55702209472659	-1011.320678710938	284.583465576172	69.94972991943362	-1013.362731933594	80.70212554931643	128.9986267089844	-830.1948242187505	85.64866638183597	143.6753997802735	-857.7832031250005	56.26713562011722	99.10657501220709	-1364.242797851563	613.0093994140627	308.2957153320314	-1754.940185546876	288.1476135253907	137.9259948730469	-1350.67333984375	963.3181152343755	150.8423767089844	-1371.519775390625	945.2019653320317	208.5831451416017	-1586.516357421876	323.9717712402345	236.6580352783204	-1521.060302734375	364.5526733398439	252.6505126953126	-1362.368408203125	948.8018188476567	158.8530883789063	-1320.128295898438	1091.515014648438	199.5995635986329	-1158.7314453125	573.7647705078127	51.9513969421387	-1154.51513671875	631.9671630859377	30.7673683166504	-1062.5224609375	317.9456176757814	57.95550537109378	
27	0.13	-1238.778930664063	1367.912841796875	148.2778930664063	-1242.959106445313	1293.6015625	281.7005004882814	-1134.647827148438	1271.03125	114.1621475219727	-1095.916259765625	1088.580688476563	127.0810775756837	-1164.109619140625	870.2382202148442	302.1335754394532	-1332.684692382813	967.158081054688	236.1899261474611	-1147.232299804688	889.326538085938	85.13105773925784	-1316.71826171875	994.3156127929692	194.4735412597657	-1356.349731445313	533.183288574219	290.5997314453126	-1311.038452148438	573.2310180664065	301.5306701660157	-1564.471679687501	374.484832763672	250.3756561279298	-1748.639526367188	154.5027313232422	219.3662567138673	-1719.267456054688	121.7506408691407	177.4705352783204	-1087.037475585938	626.4582519531252	32.01877212524415	-1025.7666015625	241.1373138427736	69.10733795166018	-998.4755249023442	282.2984924316407	70.56606292724612	-1003.96826171875	78.54402160644534	129.8004760742188	-820.980590820313	80.54884338378909	144.5907287597657	-849.046020507813	51.39451599121097	100.2724304199219	-1344.8271484375	610.074645996094	309.6347961425782	-1738.604980468751	292.694549560547	136.3374328613282	-1335.425048828125	960.846557617188	150.8195190429688	-1355.95068359375	943.0298461914067	208.9871368408204	-1569.406982421876	325.0994567871095	236.7186431884767	-1503.197143554688	364.1350402832032	253.6042633056642	-1347.093139648438	946.263305664063	159.1620330810547	-1305.000854492188	1090.032470703125	199.2805480957032	-1142.555541992188	571.884704589844	52.73717117309573	-1138.50244140625	629.9133911132815	30.70779418945314	-1048.980102539063	316.5491027832032	58.30302047729495	
28	0.135	-1223.479614257813	1365.975463867188	147.2575225830079	-1227.746826171875	1292.435180664063	280.9230346679689	-1119.302001953125	1269.310180664063	113.7621383666993	-1080.719848632813	1086.955444335938	127.5126724243165	-1147.755004882813	869.4398803710942	302.1430969238282	-1317.484985351563	964.946166992188	236.1178436279298	-1131.861572265625	887.4574584960942	84.65620422363284	-1301.612548828125	991.8461914062505	194.1940155029298	-1336.16650390625	529.936462402344	292.2452697753907	-1291.157592773438	570.5022583007815	302.5757751464845	-1545.933837890626	375.3579101562501	250.5025634765626	-1733.664550781251	159.782211303711	219.4344329833986	-1704.206665039063	126.3096160888672	178.0888214111329	-1070.736328125	624.6256103515627	31.82043075561525	-1014.345886230469	239.0166778564454	69.71669006347659	-986.256469726563	279.5455627441407	71.1564636230469	-995.7388305664067	75.88789367675784	130.5819854736329	-812.9224243164067	74.80249786376956	145.546859741211	-841.4718627929692	45.98037719726564	101.3423156738282	-1325.30810546875	606.9276123046877	311.0513916015626	-1721.843383789063	296.9181518554689	134.9318237304688	-1320.254028320313	957.982299804688	150.7788238525391	-1340.456420898438	940.4533081054692	209.3788452148439	-1551.973388671876	326.0908508300782	236.9859771728517	-1485.049560546875	363.569793701172	254.7211761474611	-1331.919189453125	943.3354492187505	159.4586639404297	-1289.869506835938	1088.252319335938	198.9741210937501	-1126.079223632813	570.1072998046877	53.45367813110354	-1122.246704101563	627.9993286132815	30.83341598510744	-1035.975952148438	314.8146972656251	58.64532470703128	
29	0.14	-1208.194580078125	1363.795288085938	146.2290191650391	-1212.61962890625	1291.0380859375	280.1044006347657	-1103.92724609375	1267.317260742188	113.4250640869141	-1065.556762695313	1084.926147460938	127.9829711914063	-1131.413208007813	868.3655395507817	302.109344482422	-1302.410522460938	962.3528442382817	236.0359802246095	-1116.519897460938	885.3422241210942	84.08345031738284	-1286.604125976563	988.989624023438	193.9279632568361	-1315.834106445313	526.4678344726565	294.001434326172	-1271.181640625	567.5764770507815	303.7895507812501	-1527.048461914063	376.0503234863282	250.7398376464845	-1717.940551757813	164.7322845458985	219.6739349365236	-1688.348876953126	130.5882873535157	178.9014282226563	-1054.258911132813	623.073181152344	31.89354133605958	-1003.652099609375	236.5503540039064	70.38955688476565	-974.6452026367192	276.3569946289064	71.72790527343753	-988.5859985351567	72.77976226806643	131.3341064453126	-805.923217773438	68.62686157226565	146.5703735351563	-834.9242553710942	40.25996017456056	102.2861938476563	-1305.703857421875	603.5623168945315	312.5288085937501	-1704.667480468751	300.8123168945314	133.7199859619141	-1305.158935546875	954.745483398438	150.7365722656251	-1325.032470703125	937.4745483398442	209.7625274658204	-1534.209106445313	326.9307556152345	237.4608917236329	-1466.600341796875	362.8374938964845	255.9842681884767	-1316.840698242188	940.0351562500005	159.7503051757813	-1274.730712890625	1086.179443359375	198.6865997314454	-1109.33740234375	568.4282836914065	54.01850891113284	-1105.797607421875	626.2331542968752	31.11572837829591	-1023.497314453125	312.7434082031251	58.98409271240237	
30	0.145	-1192.920654296875	1361.380126953125	145.1930847167969	-1197.57861328125	1289.405029296875	279.246307373047	-1088.518676757813	1265.045043945313	113.1472625732422	-1050.4130859375	1082.495483398438	128.4856872558594	-1115.093017578125	867.0033569335942	302.0262451171876	-1287.446533203125	959.3718872070317	235.9605407714845	-1101.209228515625	882.9982910156255	83.41519165039065	-1271.69970703125	985.7642211914067	193.6987609863282	-1295.352416992188	522.7613525390627	295.8517456054689	-1251.11376953125	564.4410400390627	305.1513977050782	-1507.801147460938	376.5393066406251	251.1026763916017	-1701.465942382813	169.349349975586	220.0966339111329	-1671.708251953126	134.5791778564454	179.9236602783204	-1037.66357421875	621.7972412109377	32.22375106811525	-993.634155273438	233.7789306640626	71.12409973144534	-963.6135864257817	272.7814941406251	72.29314422607425	-982.424194335938	69.2801208496094	132.0472106933594	-799.8870239257817	62.27141189575198	147.6849517822266	-829.2680053710942	34.4969825744629	103.0718460083008	-1286.025756835938	599.9687500000002	314.0472412109376	-1687.078979492188	304.3758239746095	132.7108154296876	-1290.139038085938	951.1630859375005	150.7099304199219	-1309.67529296875	934.0996704101567	210.1435852050782	-1516.100219726563	327.598602294922	238.1401824951173	-1447.828491210938	361.9163818359376	257.378875732422	-1301.852294921875	936.3838500976567	160.0456085205079	-1259.582885742188	1083.82177734375	198.4224700927736	-1092.381958007813	566.8206787109377	54.35950088500979	-1089.215454101563	624.597595214844	31.51504325866701	-1011.516296386719	310.3544006347657	59.31889343261722	
31	0.15	-1177.654052734375	1358.741455078125	144.1512603759766	-1182.6259765625	1287.531494140625	278.3518981933595	-1073.071533203125	1262.487426757813	112.9256439208985	-1035.275268554688	1079.669311523438	129.0155944824219	-1098.804443359375	865.3451538085942	301.8878173828126	-1272.577880859375	955.9994506835942	235.9090423583986	-1085.933837890625	880.446899414063	82.6545104980469	-1256.907348632813	982.193969726563	193.5313720703126	-1274.720825195313	518.8016357421877	297.7763061523439	-1230.953979492188	561.0815429687502	306.6367797851564	-1488.175537109375	376.7996215820314	251.6070098876954	-1684.248046875001	173.6322479248047	220.7117919921876	-1654.310180664063	138.2763671875001	181.1653289794922	-1021.016967773438	620.7561645507815	32.79064941406251	-984.2317504882817	230.7587280273439	71.91323089599612	-953.125366210938	268.8825073242189	72.86957550048831	-977.1724243164067	65.46403503417972	132.7127532958985	-794.7218627929692	56.00425720214847	148.910873413086	-824.3759155273442	28.96331024169923	103.672836303711	-1266.279907226563	596.136413574219	315.5854797363282	-1669.070068359376	307.6108703613282	131.9124908447266	-1275.194213867188	947.269409179688	150.716781616211	-1294.382690429688	930.3399047851567	210.5288238525392	-1497.625732421875	328.0695800781251	239.0168457031251	-1428.710571289063	360.7848205566407	258.8936767578126	-1286.949584960938	932.4082641601567	160.3547363281251	-1244.425903320313	1081.191284179688	198.1844635009767	-1075.282836914063	565.237487792969	54.42632675170901	-1072.569091796875	623.0501708984377	31.98444747924806	-999.992309570313	307.6847534179689	59.64915466308597	
